HIERARCHY
ROOT Hips
{
 OFFSET 0.000000 0.000000 0.000000
 CHANNELS 6 Xposition Yposition Zposition Yrotation Xrotation Zrotation
 JOINT Chest
 {
  OFFSET 0.000000 9.303000 0.001900
  CHANNELS 3 Yrotation Xrotation Zrotation
  JOINT Chest2
  {
   OFFSET 0.000000 9.301100 -0.003900
   CHANNELS 3 Yrotation Xrotation Zrotation
   JOINT Chest3
   {
    OFFSET 0.000000 9.262800 0.000000
    CHANNELS 3 Yrotation Xrotation Zrotation
    JOINT Chest4
    {
     OFFSET 0.000000 9.253300 0.000000
     CHANNELS 3 Yrotation Xrotation Zrotation
     JOINT Neck
     {
      OFFSET 0.000000 14.010300 0.000000
      CHANNELS 3 Yrotation Xrotation Zrotation
      JOINT Head
      {
       OFFSET 0.000000 8.657600 -0.008300
       CHANNELS 3 Yrotation Xrotation Zrotation
       End Site
       {
        OFFSET 0.000000 16.540200 -0.004400
       }
      }
     }
     JOINT RightCollar
     {
      OFFSET -2.834100 9.267700 0.000000
      CHANNELS 3 Yrotation Xrotation Zrotation
      JOINT RightShoulder
      {
       OFFSET -13.135200 0.000000 0.000000
       CHANNELS 3 Yrotation Xrotation Zrotation
       JOINT RightElbow
       {
        OFFSET 0.000000 -28.893500 0.000000
        CHANNELS 3 Yrotation Xrotation Zrotation
        JOINT RightWrist
        {
         OFFSET 0.000000 -23.344000 0.000000
         CHANNELS 3 Yrotation Xrotation Zrotation
         End Site
         {
          OFFSET 0.000000 -17.223000 0.000000
         }
        }
       }
      }
     }
     JOINT LeftCollar
     {
      OFFSET 2.834100 9.267700 0.000000
      CHANNELS 3 Yrotation Xrotation Zrotation
      JOINT LeftShoulder
      {
       OFFSET 13.135200 0.000000 0.000000
       CHANNELS 3 Yrotation Xrotation Zrotation
       JOINT LeftElbow
       {
        OFFSET 0.000000 -28.893500 0.000000
        CHANNELS 3 Yrotation Xrotation Zrotation
        JOINT LeftWrist
        {
         OFFSET 0.000000 -23.344000 0.000000
         CHANNELS 3 Yrotation Xrotation Zrotation
         End Site
         {
          OFFSET 0.000000 -17.223000 0.000000
         }
        }
       }
      }
     }
    }
   }
  }
 }
 JOINT RightHip
 {
  OFFSET -7.547200 -0.009500 -0.001000
  CHANNELS 3 Yrotation Xrotation Zrotation
  JOINT RightKnee
  {
   OFFSET 0.000000 -39.762800 0.000900
   CHANNELS 3 Yrotation Xrotation Zrotation
   JOINT RightAnkle
   {
    OFFSET 0.000000 -38.588200 0.001600
    CHANNELS 3 Yrotation Xrotation Zrotation
    JOINT RightToe
    {
     OFFSET 0.000000 -4.693300 10.419700
     CHANNELS 3 Yrotation Xrotation Zrotation
     End Site
     {
      OFFSET 0.000000 -1.379900 5.669300
     }
    }
   }
  }
 }
 JOINT LeftHip
 {
  OFFSET 7.547200 -0.009500 -0.001000
  CHANNELS 3 Yrotation Xrotation Zrotation
  JOINT LeftKnee
  {
   OFFSET 0.000000 -39.762800 0.000900
   CHANNELS 3 Yrotation Xrotation Zrotation
   JOINT LeftAnkle
   {
    OFFSET 0.000000 -38.588200 0.001600
    CHANNELS 3 Yrotation Xrotation Zrotation
    JOINT LeftToe
    {
     OFFSET 0.000000 -4.693300 10.419700
     CHANNELS 3 Yrotation Xrotation Zrotation
     End Site
     {
      OFFSET 0.000000 -1.379900 5.669300
     }
    }
   }
  }
 }
}
MOTION
Frames: 12
Frame Time: 0.008333
-9.308141 46.077285 26.232479 160.307816 -13.477392 -0.015045 4.186670 7.165396 0.448011 0.183909 0.386401 0.033483 0.356197 0.609006 0.038535 3.835077 6.801400 0.680295 20.882200 23.128065 17.655991 21.068207 1.347986 16.420307 1.085498 -1.063232 -5.671380 7.151397 -9.375751 -1.757948 14.311871 -38.912246 0.651565 -2.027757 -10.322226 -33.449245 -6.503464 -4.191125 0.913266 -2.411759 -10.375341 7.806293 -32.211801 -36.744987 2.002134 -1.083842 -19.553481 26.942991 -24.825686 -73.875872 21.194315 -58.159624 85.882970 -60.090789 -5.549150 -4.726485 -2.501052 0.136114 -0.450700 -0.069983 6.057269 -74.045464 14.603084 76.257139 78.213011 73.349617 -11.739373 -5.342190 4.501922 0.138869 0.232763 0.052907
-9.313076 46.073278 26.268370 160.274241 -13.477836 0.004927 4.204457 7.196280 0.442506 0.180711 0.385799 0.034535 0.348869 0.627842 0.043164 3.789747 6.840506 0.695491 20.829452 23.065719 17.629707 21.002097 1.262283 16.392994 1.126293 -1.480684 -6.004234 7.914746 -8.684468 -1.719257 13.938654 -39.360358 1.001327 -2.328086 -9.353339 -33.829145 -6.531852 -4.589703 0.937728 -2.981978 -9.950140 7.871744 -32.726740 -36.631086 2.310687 -1.283874 -18.898464 27.495316 -24.450799 -73.923618 20.849185 -57.919622 85.833296 -59.720381 -5.528160 -4.685007 -2.530527 0.134732 -0.449529 -0.058015 5.694266 -74.022531 14.948559 76.317674 78.169194 73.292554 -11.695395 -5.336451 4.497262 0.102739 0.248268 0.048724
-9.316260 46.066145 26.304148 160.234690 -13.476975 0.017777 4.159229 7.291900 0.462004 0.244088 0.317116 0.011029 0.347809 0.629474 0.043574 3.717225 6.894189 0.717305 20.769909 22.985387 17.586395 20.929637 1.152352 16.344638 1.256419 -1.989892 -6.376675 8.805039 -7.889761 -1.765254 13.477347 -39.842361 1.399955 -2.599070 -8.343551 -33.898719 -6.588586 -5.026237 0.967061 -3.548919 -9.477087 7.994594 -33.364399 -36.528768 2.652594 -1.469413 -18.179567 27.848105 -23.943787 -73.978074 20.373697 -57.502279 85.800512 -59.126909 -5.492670 -4.659222 -2.555219 0.129510 -0.431339 -0.051688 5.396560 -74.009681 15.257634 76.331175 78.145474 73.211934 -11.688884 -5.324298 4.495441 0.094174 0.260638 0.044896
-9.320655 46.054838 26.348240 160.246782 -13.413160 0.008592 4.069277 7.302766 0.471891 0.210496 0.348684 0.022138 0.341306 0.633041 0.045330 3.721588 6.870984 0.702982 20.699082 22.884867 17.533650 20.843890 1.015488 16.285549 1.445725 -2.587237 -6.783624 9.793451 -6.989914 -1.891372 12.926376 -40.424866 1.889591 -2.776566 -7.361225 -33.683569 -6.677321 -5.476523 1.035355 -4.128791 -8.955707 8.148487 -34.038255 -36.466445 3.007938 -1.652795 -17.420123 27.999332 -23.701062 -74.072165 20.114403 -56.938287 85.774941 -58.419577 -5.486142 -4.643406 -2.510096 0.140024 -0.402149 -0.107949 5.083603 -74.065191 15.539487 76.138234 78.121086 72.935949 -11.692894 -5.271500 4.480248 0.097644 0.262252 0.050315
-9.322322 46.044097 26.386474 160.237906 -13.375636 0.000650 4.003001 7.327897 0.477011 0.192295 0.364562 0.025829 0.335452 0.635744 0.045818 3.685427 6.882223 0.699901 20.616900 22.767278 17.471194 20.744678 0.855550 16.215605 1.664603 -3.241848 -7.229733 10.824565 -6.031768 -2.057527 12.374080 -41.141800 2.445699 -2.851802 -6.456173 -33.207792 -6.801208 -5.927541 1.143665 -4.732221 -8.381911 8.331376 -34.642574 -36.462267 3.345894 -1.850012 -16.644208 27.971156 -23.639925 -74.119561 20.060361 -56.376132 85.749703 -57.788987 -5.481667 -4.615437 -2.503736 0.102419 -0.390460 -0.092654 4.773946 -74.096504 15.842005 76.014591 78.119951 72.735328 -11.682398 -5.239230 4.465135 0.101586 0.276943 0.057138
-9.322522 46.034893 26.419155 160.226848 -13.357530 -0.003584 3.919299 7.372616 0.474993 0.188803 0.366081 0.025865 0.329314 0.638435 0.045876 3.620109 6.914057 0.698237 20.523833 22.639376 17.391456 20.633905 0.680787 16.125307 1.893742 -3.912005 -7.719324 11.838997 -5.085826 -2.209427 11.910743 -41.990481 3.033971 -2.850811 -5.627470 -32.504501 -6.945154 -6.352591 1.285798 -5.394594 -7.771556 8.540242 -35.073437 -36.520386 3.628222 -2.065562 -15.880357 27.806579 -23.582894 -74.143088 20.009599 -55.742948 85.738035 -57.104965 -5.479163 -4.591209 -2.497605 0.090002 -0.370691 -0.120849 4.500158 -74.108015 16.114923 75.926637 78.126178 72.576391 -11.673226 -5.221189 4.452962 0.108533 0.299336 0.065779
-9.318306 46.027533 26.449839 160.196369 -13.342573 -0.024928 3.837255 7.412787 0.491984 0.184504 0.367597 0.025923 0.321850 0.641111 0.045945 3.541239 6.948597 0.695949 20.418817 22.513964 17.287561 20.511313 0.506777 16.006169 2.124370 -4.563258 -8.244913 12.785700 -4.212583 -2.306991 11.552877 -42.934918 3.657874 -2.806540 -4.866554 -31.599310 -7.096596 -6.727202 1.456916 -6.157434 -7.138450 8.765926 -35.253033 -36.630257 3.823950 -2.280504 -15.158260 27.544048 -23.615278 -74.140414 20.073941 -54.911372 85.730649 -56.244132 -5.467899 -4.617583 -2.486032 0.070272 -0.302411 -0.126152 4.215770 -74.117279 16.424332 75.847558 78.143575 72.439078 -11.631537 -5.188395 4.454334 0.083605 0.285019 0.055252
-9.310321 46.022517 26.478230 160.153683 -13.330398 -0.062219 3.749831 7.445071 0.526724 0.179208 0.368805 0.026071 0.312779 0.643277 0.046177 3.447079 6.983195 0.695021 20.303317 22.404223 17.155920 20.379375 0.349942 15.853551 2.360032 -5.171057 -8.788678 13.618507 -3.454111 -2.344553 11.250086 -43.925352 4.360562 -2.743505 -4.172767 -30.491328 -7.248889 -7.044425 1.645073 -7.016894 -6.492230 9.004169 -35.161279 -36.771338 3.926892 -2.466842 -14.509169 27.207714 -23.776045 -74.095374 20.333333 -54.142421 85.674249 -55.504976 -5.531052 -4.622676 -2.485161 0.114614 -0.258711 -0.069021 3.998934 -74.129470 16.687442 75.732254 78.165519 72.300585 -11.607373 -5.198573 4.453784 0.060296 0.299503 0.043215
-9.302795 46.020436 26.500315 160.070738 -13.335468 -0.079185 3.677050 7.486187 0.548434 0.172957 0.369635 0.026222 0.301964 0.644864 0.046467 3.336877 7.017339 0.694093 20.180016 22.317197 16.996556 20.241721 0.219370 15.667380 2.609751 -5.721090 -9.326037 14.313212 -2.827014 -2.346831 10.924913 -44.929292 5.209004 -2.699272 -3.540625 -29.167352 -7.388094 -7.306276 1.839492 -7.915488 -5.857403 9.252538 -34.853671 -36.924251 3.947133 -2.609613 -13.959507 26.814799 -23.687513 -74.064144 20.366180 -53.387917 85.642950 -54.727054 -5.568975 -4.610873 -2.485597 0.122996 -0.227025 -0.065170 3.873863 -74.122417 16.899121 75.714591 78.174148 72.262660 -11.595202 -5.218120 4.455723 0.043260 0.316791 0.035357
-9.296513 46.020259 26.518810 160.017602 -13.339670 -0.097183 3.552114 7.517458 0.558792 0.165963 0.370162 0.026322 0.289686 0.645844 0.046694 3.212885 7.050611 0.691645 20.047074 22.255634 16.812538 20.095544 0.118311 15.452102 2.878494 -6.210468 -9.831951 14.881089 -2.322797 -2.351512 10.492651 -45.938532 6.262025 -2.738389 -2.960908 -27.577783 -7.509103 -7.519363 2.030772 -8.763646 -5.262287 9.507377 -34.447096 -37.075428 3.905685 -2.709542 -13.525670 26.389793 -23.505000 -74.042326 20.269080 -52.701977 85.616287 -53.985700 -5.597917 -4.616154 -2.475797 0.118978 -0.192597 -0.054233 3.722853 -74.118373 17.108994 75.673287 78.203812 72.193819 -11.572213 -5.214260 4.462684 0.037584 0.317143 0.027839
-9.291840 46.021834 26.531413 159.958351 -13.355930 -0.105052 3.417582 7.551071 0.557263 0.158484 0.370486 0.026337 0.276613 0.646350 0.046690 3.080547 7.082283 0.686908 19.896570 22.219565 16.606817 19.930159 0.046085 15.212744 3.158892 -6.645081 -10.285881 15.348577 -1.925547 -2.398898 9.896094 -46.947286 7.541819 -2.922745 -2.428724 -25.634348 -7.623693 -7.689197 2.207041 -9.470405 -4.728813 9.768944 -34.064811 -37.220605 3.826146 -2.769328 -13.211443 25.965225 -23.241809 -74.019600 20.083588 -52.154968 85.591453 -53.367389 -5.604609 -4.615031 -2.482179 0.124756 -0.170442 -0.034846 3.717485 -74.109931 17.183342 75.642848 78.243962 72.158657 -11.522561 -5.215468 4.482248 0.012470 0.311733 0.016606
-9.289260 46.024226 26.538605 159.900658 -13.380332 -0.105657 3.273555 7.582493 0.546581 0.150748 0.370385 0.026192 0.263269 0.646255 0.046284 2.944702 7.109994 0.678166 19.721109 22.208167 16.380811 19.735835 0.000992 14.952297 3.437844 -7.029147 -10.673830 15.722397 -1.625568 -2.519272 9.140404 -47.954923 9.045747 -3.295398 -1.941120 -23.287717 -7.740356 -7.813603 2.357781 -9.975695 -4.274580 10.043439 -33.786305 -37.361755 3.723215 -2.793615 -13.008951 25.571849 -22.993999 -73.994654 19.896584 -51.771273 85.573516 -52.920649 -5.596075 -4.610658 -2.490131 0.132923 -0.159683 -0.019525 3.764760 -74.094439 17.204214 75.659721 78.259964 72.181609 -11.509566 -5.215140 4.495232 -0.003008 0.302253 0.010657
